<svg width="200" height="200" viewBox="0 0 200 200" fill="none" xmlns="http://www.w3.org/2000/svg">
<rect width="200" height="200" fill="white"/>
<path d="M117.456 69.952C117.456 73.1947 118.267 76.0533 119.888 78.528C121.509 81.0027 123.515 83.136 125.904 84.928C128.293 86.72 131.536 88.8107 135.632 91.2C139.984 93.8453 143.44 96.1493 146 98.112C148.56 99.9893 150.736 102.336 152.528 105.152C154.32 107.968 155.216 111.253 155.216 115.008C155.216 121.749 152.827 127.211 148.048 131.392C143.269 135.488 136.784 137.536 128.592 137.536C125.179 137.536 121.723 137.109 118.224 136.256C114.811 135.403 111.909 134.251 109.52 132.8C109.093 132.544 108.795 132.288 108.624 132.032C108.539 131.691 108.411 131.136 108.24 130.368L106.96 112.064C106.875 111.723 107.088 111.509 107.6 111.424C108.112 111.339 108.411 111.467 108.496 111.808C110.373 118.123 113.232 123.584 117.072 128.192C120.912 132.8 125.776 135.104 131.664 135.104C135.675 135.104 139.003 134.037 141.648 131.904C144.293 129.685 145.616 126.101 145.616 121.152C145.616 117.227 144.72 113.856 142.928 111.04C141.221 108.139 139.131 105.749 136.656 103.872C134.267 101.995 130.939 99.7333 126.672 97.088C122.576 94.528 119.333 92.352 116.944 90.56C114.64 88.768 112.677 86.592 111.056 84.032C109.435 81.3867 108.624 78.3147 108.624 74.816C108.624 70.464 109.776 66.752 112.08 63.68C114.469 60.608 117.541 58.3467 121.296 56.896C125.136 55.36 129.189 54.592 133.456 54.592C136.101 54.592 138.789 54.848 141.52 55.36C144.336 55.872 146.853 56.5973 149.072 57.536C150.437 58.1333 151.12 58.9013 151.12 59.84L151.632 75.84C151.632 76.1813 151.376 76.3947 150.864 76.48C150.437 76.5653 150.181 76.4373 150.096 76.096C149.584 73.536 148.603 70.8053 147.152 67.904C145.701 64.9173 143.611 62.3147 140.88 60.096C138.149 57.8773 134.821 56.768 130.896 56.768C126.544 56.768 123.216 58.048 120.912 60.608C118.608 63.168 117.456 66.2827 117.456 69.952Z" fill="#090B21"/>
<path d="M98 148.8L161.872 148.8L161.872 155.2L98 155.2L98 148.8Z" fill="#090B21"/>
<path d="M106 108H113.412L115 123.714C115 123.714 114.239 126.901 113.412 128.714C112.585 130.527 110.765 133 110.765 133L106 126.571V108Z" fill="white"/>
<path d="M100.648 90.944C107.475 91.5413 112.979 93.8453 117.16 97.856C121.341 101.867 123.432 106.773 123.432 112.576C123.432 117.099 122.237 121.195 119.848 124.864C117.544 128.448 114.344 131.307 110.248 133.44C106.237 135.488 101.715 136.512 96.68 136.512C93.9493 136.512 90.9627 136.384 87.72 136.128C86.5253 136.043 85.1173 135.957 83.496 135.872C81.8747 135.787 80.04 135.744 77.992 135.744L69.032 135.872C67.4107 135.957 65.2347 136 62.504 136C62.248 136 62.12 135.744 62.12 135.232C62.12 134.72 62.248 134.464 62.504 134.464C65.4907 134.464 67.6667 134.251 69.032 133.824C70.4827 133.312 71.5067 132.459 72.104 131.264C72.7013 130.069 73 128.192 73 125.632V66.368C73 63.808 72.7013 61.9307 72.104 60.736C71.592 59.5413 70.6107 58.7307 69.16 58.304C67.7947 57.792 65.6187 57.536 62.632 57.536C62.4613 57.536 62.376 57.28 62.376 56.768C62.376 56.256 62.4613 56 62.632 56L69.032 56.128C72.7867 56.2987 75.7733 56.384 77.992 56.384C80.296 56.384 82.8133 56.256 85.544 56C86.4827 55.9147 87.592 55.8293 88.872 55.744C90.2373 55.6587 91.688 55.616 93.224 55.616C100.563 55.616 106.152 57.152 109.992 60.224C113.832 63.2107 115.752 67.264 115.752 72.384C115.752 76.48 114.429 80.192 111.784 83.52C109.139 86.7627 105.427 89.2373 100.648 90.944ZM90.792 57.792C88.744 57.792 87.1653 58.0053 86.056 58.432C85.032 58.8587 84.264 59.712 83.752 60.992C83.3253 62.1867 83.112 64.064 83.112 66.624V90.944L88.744 91.072C94.376 91.072 98.6 89.4507 101.416 86.208C104.232 82.9653 105.64 78.6987 105.64 73.408C105.64 68.544 104.403 64.7467 101.928 62.016C99.5387 59.2 95.8267 57.792 90.792 57.792ZM94.632 133.952C100.691 133.952 105.171 132.373 108.072 129.216C111.059 126.059 112.552 121.536 112.552 115.648C112.552 109.163 110.76 103.957 107.176 100.032C103.592 96.1067 98.5147 94.1013 91.944 94.016C89.64 93.9307 86.696 94.016 83.112 94.272V125.632C83.112 127.765 83.4107 129.429 84.008 130.624C84.6053 131.733 85.7147 132.587 87.336 133.184C88.9573 133.696 91.3893 133.952 94.632 133.952Z" fill="#40A2D5"/>
<path d="M57 148.8H129.96V155.2H57V148.8Z" fill="#40A2D5"/>
<path d="M38.304 116.544C38.304 116.373 38.1333 116.288 37.792 116.288C37.536 116.288 37.3227 116.373 37.152 116.544C36.896 116.629 36.768 116.715 36.768 116.8C37.6213 122.944 38.048 128.704 38.048 134.08C38.048 134.763 38.176 135.275 38.432 135.616C38.688 135.872 39.2 136 39.968 136H94.496C94.752 136 94.88 135.744 94.88 135.232C94.88 134.72 94.752 134.464 94.496 134.464C91.424 134.464 89.2053 134.251 87.84 133.824C86.4747 133.397 85.536 132.587 85.024 131.392C84.512 130.112 84.256 128.192 84.256 125.632V66.368C84.256 63.808 84.512 61.9307 85.024 60.736C85.536 59.5413 86.5173 58.7307 87.968 58.304C89.3333 57.792 91.5093 57.536 94.496 57.536C94.752 57.536 94.88 57.28 94.88 56.768C94.88 56.256 94.752 56 94.496 56H42.272C41.4187 56 40.992 56.384 40.992 57.152L40.736 73.28C40.736 73.536 40.992 73.7067 41.504 73.792C41.9307 73.792 42.1867 73.664 42.272 73.408C42.8693 68.7147 44.5333 65.1733 47.264 62.784C49.9947 60.3093 53.5787 59.072 58.016 59.072H64.544C68.2987 59.072 70.816 59.6267 72.096 60.736C73.376 61.76 74.016 63.808 74.016 66.88V92.864H59.936C55.584 92.864 52.384 92.1387 50.336 90.688C48.288 89.152 47.264 86.8053 47.264 83.648C47.264 83.4773 47.0507 83.392 46.624 83.392C46.112 83.392 45.856 83.4773 45.856 83.648L45.984 94.4L45.856 100.16C45.6853 102.891 45.6 105.024 45.6 106.56C45.6 106.731 45.856 106.816 46.368 106.816C46.88 106.816 47.136 106.731 47.136 106.56C47.136 102.891 48.2027 100.203 50.336 98.496C52.384 96.704 55.712 95.808 60.32 95.808H74.016V125.12C74.016 128.192 73.4613 130.283 72.352 131.392C71.1573 132.501 68.8107 133.056 65.312 133.056H56.992C52.128 133.056 48.1173 131.648 44.96 128.832C41.7173 125.931 39.4987 121.835 38.304 116.544Z" fill="#40A2D5"/>
<path d="M100 148.8H30.624V155.2H100V148.8Z" fill="#40A2D5"/>
<path d="M117 148.802H130V155.2H117V148.802Z" fill="#090B21"/>
</svg>
